<svg xmlns="http://www.w3.org/2000/svg" viewBox="0 0 190 28" fill="none">
  <!-- Lucide stamp icon (MIT license) scaled to 28px, in green -->
  <g transform="translate(1, 1) scale(1.08)">
    <path d="M14 13V8.5C14 7 15 7 15 5a3 3 0 0 0-6 0c0 2 1 2 1 3.5V13" stroke="#34D399" stroke-width="2" stroke-linecap="round" stroke-linejoin="round" fill="none"/>
    <path d="M20 15.5a2.5 2.5 0 0 0-2.5-2.5h-11A2.5 2.5 0 0 0 4 15.5V17a1 1 0 0 0 1 1h14a1 1 0 0 0 1-1z" stroke="#34D399" stroke-width="2" stroke-linecap="round" stroke-linejoin="round" fill="none"/>
    <path d="M5 22h14" stroke="#34D399" stroke-width="2" stroke-linecap="round" stroke-linejoin="round" fill="none"/>
  </g>
  <!-- Brand text -->
  <text x="34" y="22.5" font-family="'Space Grotesk', system-ui, sans-serif" font-size="28" font-weight="700" fill="white">Attesta</text>
</svg>
